<svg width="214" height="81" viewBox="0 0 214 81" fill="none" xmlns="http://www.w3.org/2000/svg">
<path d="M171.7 54.4899L143.24 28.1699L155.74 62.4899H213.75L208.99 54.4899H171.7Z" fill="#FFB000"/>
<path d="M42.05 54.4899L70.51 28.1699L58.01 62.4899H0L5.51 54.4899H42.05Z" fill="#FFB000"/>
<path fill-rule="evenodd" clip-rule="evenodd" d="M107.17 0H95.53L87.72 23.79H99.44L107.17 0ZM85.1 31.76L75 62.52H86.86L94.61 38.67L85.1 31.76ZM87.1 62.52H127.43L107.26 47.87L87.09 62.52H87.1ZM127.67 62.52H138.09L128.81 32.21L119.91 38.67L127.66 62.52H127.67ZM126.24 23.79L118.96 0H107.36L115.09 23.79H126.24Z" fill="#FFB000"/>
<path d="M0 72H214L204 81H10L0 72Z" fill="white"/>
</svg>
