<svg width="333" height="338" viewBox="0 0 333 338" fill="none" xmlns="http://www.w3.org/2000/svg">
<path d="M89.4496 201.12L79.1796 198.8L92.4696 224.15L77.3896 239.93L89.4496 251.29L106.1 255.18L96.3496 244.73L113.57 226.46L89.4396 201.11L89.4496 201.12Z" fill="#FFB000"/>
<path d="M244.72 201.12L254.99 198.8L241.7 224.15L256.78 239.93L244.72 251.29L228.06 255.18L237.81 244.73L220.59 226.46L244.72 201.11V201.12Z" fill="#FFB000"/>
<path d="M231.95 111.16L203.49 84.8401L215.99 119.16H274L269.24 111.16H231.95Z" fill="#FFB000"/>
<path d="M102.3 111.16L130.76 84.8401L118.26 119.16H60.25L65.76 111.16H102.3Z" fill="#FFB000"/>
<path fill-rule="evenodd" clip-rule="evenodd" d="M167.42 56.6699H155.78L147.97 80.4599H159.69L167.42 56.6699ZM145.35 88.4299L135.25 119.19H147.11L154.86 95.3399L145.35 88.4299ZM147.35 119.19H187.68L167.51 104.54L147.34 119.19H147.35ZM187.92 119.19H198.34L189.06 88.8799L180.16 95.3399L187.91 119.19H187.92ZM186.49 80.4599L179.21 56.6699H167.61L175.34 80.4599H186.49Z" fill="#FFB000"/>
<path fill-rule="evenodd" clip-rule="evenodd" d="M228.23 131.67H211.78V156.5L176.14 128.93V186.51H192.59V161.68L228.23 189.25V131.67ZM278.73 172.8H255.62V164.97H277.16V151.65H255.62V145.38H278.73V131.67H239.17V186.51H278.73V172.8ZM125.46 159.09C125.46 161.75 125.96 164.1 126.95 166.14C127.94 168.18 129.35 169.77 131.18 170.92C133.01 172.02 135.2 172.57 137.76 172.57C140.32 172.57 142.51 172.02 144.34 170.92C146.17 169.77 147.58 168.18 148.57 166.14C149.56 164.1 150.06 161.75 150.06 159.09C150.06 156.43 149.59 154.02 148.65 152.04C147.71 150 146.33 148.44 144.5 147.34C142.72 146.19 140.48 145.62 137.76 145.62C135.2 145.62 133.01 146.19 131.18 147.34C129.35 148.44 127.94 150 126.95 152.04C125.96 154.02 125.46 156.37 125.46 159.09ZM107.21 159.09C107.21 154.7 107.99 150.73 109.56 147.18C111.13 143.63 113.29 140.57 116.06 138.01C118.83 135.45 122.07 133.49 125.77 132.13C129.48 130.77 133.47 130.09 137.76 130.09C142.05 130.09 146.19 130.77 149.9 132.13C153.61 133.49 156.85 135.45 159.61 138.01C162.38 140.57 164.52 143.62 166.03 147.18C167.54 150.73 168.3 154.7 168.3 159.09C168.3 163.48 167.54 167.5 166.03 171.15C164.57 174.75 162.48 177.89 159.76 180.55C157.04 183.21 153.81 185.25 150.05 186.66C146.34 188.12 142.24 188.85 137.75 188.85C133.26 188.85 129.13 188.12 125.37 186.66C121.66 185.25 118.45 183.21 115.73 180.55C113.01 177.89 110.9 174.75 109.38 171.15C107.92 167.49 107.19 163.47 107.19 159.09H107.21ZM62.1496 131.67V146.95H80.6396L57.0596 186.51H104.45V172.02H83.8496L107.98 131.68H62.1496V131.67ZM170.9 216.73V200.67H219.47L192.83 255.51H174.11L194.32 216.73H170.9ZM140.09 222.29V232.39C142.23 232.39 144.01 232.57 145.42 232.94C146.88 233.25 148.03 233.72 148.87 234.35C149.71 234.93 150.31 235.6 150.67 236.39C151.04 237.12 151.22 237.88 151.22 238.66C151.22 239.96 150.93 241.01 150.36 241.79C149.79 242.52 149 243.04 148.01 243.36C147.07 243.62 146 243.75 144.8 243.75C143.6 243.75 142.5 243.51 141.35 243.04C140.25 242.57 139.34 241.79 138.61 240.69C137.93 239.59 137.59 238.13 137.59 236.3H120.67C120.67 238.91 121.19 241.47 122.24 243.98C123.28 246.43 124.8 248.65 126.78 250.64C128.76 252.62 131.19 254.19 134.07 255.34C136.99 256.49 140.31 257.06 144.02 257.06C149.24 257.06 153.63 256.33 157.18 254.87C160.78 253.41 163.5 251.42 165.33 248.92C167.21 246.36 168.15 243.46 168.15 240.23C168.15 237.41 167.47 235.01 166.11 233.02C164.8 230.98 162.9 229.31 160.39 228.01C159.46 227.52 158.47 227.08 157.4 226.69C159.59 225.84 161.44 224.77 162.97 223.47C165.37 221.38 166.57 218.59 166.57 215.09C166.57 212.11 165.73 209.45 164.06 207.1C162.39 204.75 159.93 202.9 156.7 201.54C153.46 200.18 149.49 199.5 144.79 199.5C140.35 199.5 136.49 200.34 133.2 202.01C129.96 203.68 127.46 205.93 125.68 208.75C123.9 211.57 123.02 214.73 123.02 218.23H138.77C138.77 216.61 139.32 215.31 140.42 214.31C141.52 213.32 142.95 212.82 144.73 212.82C145.88 212.82 146.79 212.98 147.47 213.29C148.2 213.55 148.75 213.94 149.12 214.46C149.49 214.98 149.67 215.58 149.67 216.26C149.67 217.04 149.43 217.8 148.96 218.53C148.49 219.26 147.81 219.91 146.92 220.49C146.08 221.07 145.07 221.51 143.87 221.82C142.72 222.13 141.47 222.29 140.11 222.29H140.09Z" fill="white"/>
<path d="M94.33 65.3401L87.7 53.8701C76.26 61.7601 66.05 71.3101 57.43 82.1801L29.68 89.7801L36.98 117.63C32.66 128.6 29.69 140.24 28.28 152.37L0 168.7L28.28 185.03C29.85 198.5 33.35 211.37 38.48 223.39L31.85 248.63L57.86 255.74C65.81 265.67 75.09 274.5 85.43 281.93L92.28 270.59C60.9 247.64 40.52 210.56 40.52 168.71C40.52 126.86 61.79 88.1801 94.32 65.3601L94.33 65.3401Z" fill="#0080FF"/>
<path d="M220.06 283.03C203.85 290.61 185.77 294.85 166.69 294.85C147.61 294.85 127.79 290.19 110.98 281.91L104.13 293.25C117.89 300.17 132.95 304.88 148.84 306.91L166.69 337.82L184.54 306.91C199.46 305 213.64 300.75 226.69 294.51L220.06 283.03Z" fill="#0080FF"/>
<path d="M296 220.71C300.58 209.35 303.69 197.25 305.13 184.64L332.75 168.69L305.13 152.74C303.83 141.36 301.17 130.4 297.3 120.03L305.26 89.7499L275.48 81.6299C267.52 71.6899 258.23 62.8599 247.87 55.4199L241.02 66.7599C272.43 89.7099 292.84 126.81 292.84 168.69C292.84 210.57 271.54 249.27 238.98 272.08L245.61 283.55C256.68 275.93 266.58 266.75 275.02 256.34L303.32 248.6L296.01 220.71H296Z" fill="#0080FF"/>
<path d="M166.69 0L149.11 30.45C134.07 32.34 119.77 36.62 106.62 42.92L113.25 54.4C129.48 46.8 147.59 42.54 166.69 42.54C185.79 42.54 205.54 47.19 222.32 55.45L229.17 44.11C215.36 37.17 200.23 32.46 184.26 30.45L166.68 0.0100021L166.69 0Z" fill="#0080FF"/>
</svg>
