<?xml version="1.0" encoding="UTF-8"?>
<svg id="Layer_2" data-name="Layer 2" xmlns="http://www.w3.org/2000/svg" viewBox="0 0 447.73 447.73">
  <defs>
    <style>
      .cls-1, .cls-2 {
        fill: #ffb000;
      }

      .cls-1, .cls-2, .cls-3, .cls-4, .cls-5, .cls-6 {
        stroke-width: 0px;
      }

      .cls-1, .cls-5 {
        fill-rule: evenodd;
      }

      .cls-3, .cls-5 {
        fill: #fff;
      }

      .cls-4 {
        fill: #0080ff;
      }

      .cls-6 {
        fill: #231f20;
      }
    </style>
  </defs>
  <g id="Layer_1-2" data-name="Layer 1">
    <circle class="cls-6" cx="223.86" cy="223.86" r="223.86"/>
    <g>
      <path class="cls-3" d="m120.74,72.46c-3.02-4.95-1.66-10.98,3.41-14.07,3.05-1.86,6.66-1.99,9.57-.5l-2.14,3.94c-1.53-.84-3.44-.73-5.15.31-2.98,1.82-3.68,4.98-1.85,7.98s4.96,3.82,7.94,2.01c1.7-1.04,2.7-2.7,2.63-4.44l4.48-.1c0,3.25-1.76,6.41-4.83,8.28-5.06,3.09-11.05,1.54-14.07-3.41Z"/>
      <path class="cls-3" d="m154.58,43.81l7.77,18.07-4.13,1.78-3.09-7.18-5.68,2.44,3.09,7.18-4.13,1.78-7.77-18.07,4.13-1.78,2.97,6.92,5.68-2.44-2.97-6.92,4.13-1.78Z"/>
      <path class="cls-3" d="m180.84,52.99l-7.05,1.92-.14,3.24-4.75,1.29,1.28-20.74,5.53-1.51,11.63,17.22-4.75,1.29-1.76-2.72Zm-2.41-3.71l-4.12-6.36-.32,7.58,4.45-1.21Z"/>
      <path class="cls-3" d="m206.71,38.48c.5,3.7-2.07,7.09-5.92,7.61l-2.92.4.83,6.13-4.46.6-2.64-19.49,7.38-1c3.84-.52,7.23,2.05,7.73,5.76Zm-4.46.6c-.19-1.42-1.34-2.37-2.71-2.18l-2.92.4.68,5.01,2.92-.4c1.37-.19,2.22-1.41,2.03-2.83Z"/>
      <path class="cls-3" d="m228.77,35.31l-5.06.07.22,15.35-4.5.06-.22-15.35-5.06.07-.06-4.33,14.62-.21.06,4.33Z"/>
      <path class="cls-3" d="m249.04,48.05l-.45,4.3-12.3-1.28,2.04-19.56,12.16,1.27-.45,4.3-7.69-.8-.34,3.24,6.99.73-.44,4.25-6.99-.73-.36,3.47,7.83.82Z"/>
      <path class="cls-3" d="m264.3,48.85l-2.08-.48-1.46,6.3-4.38-1.02,4.46-19.16,7.66,1.78c3.64.85,5.89,4.46,5.04,8.1-.55,2.35-2.47,4.16-4.82,4.74l2.44,7.98-4.71-1.1-2.15-7.14Zm-1.19-4.32l3.29.76c1.21.28,2.44-.56,2.76-1.95.32-1.4-.41-2.69-1.62-2.97l-3.29-.76-1.15,4.93Z"/>
      <path class="cls-3" d="m293.44,54.42c2.55-5.51,6.95-8.06,11.57-5.92,4.62,2.14,5.53,7.14,2.98,12.65-2.55,5.51-6.95,8.06-11.57,5.92-4.62-2.14-5.53-7.14-2.98-12.65Zm10.46,4.84c1.59-3.44,1.41-5.79-.73-6.78-2.14-.99-4.05.39-5.65,3.83-1.59,3.44-1.41,5.79.74,6.78,2.14.99,4.05-.39,5.64-3.83Z"/>
      <path class="cls-3" d="m327,60.89l-10.19,16.83-3.85-2.33,7.73-12.77-3.47-.99,1.06-3.86,5.36,1.08,3.37,2.04Z"/>
      <path class="cls-3" d="m340.44,82.64c1.51-1.75,4.17-1.9,5.95-.36,1.74,1.51,1.94,4.12.43,5.87-1.54,1.79-4.2,2.02-5.94.52-1.79-1.54-1.99-4.24-.44-6.03Z"/>
      <path class="cls-3" d="m366.11,117.36l-3.36,2.73-7.79-9.6,15.28-12.39,7.7,9.49-3.36,2.73-4.87-6-2.53,2.05,4.43,5.46-3.32,2.69-4.43-5.46-2.71,2.2,4.96,6.11Z"/>
      <path class="cls-3" d="m372.81,135.26l3.07-5.82-6.57.19-2.71-4.34,11.67-.35,5.18-9.81,2.7,4.34-2.81,5.33,6.02-.17,2.7,4.34-11.09.32-5.46,10.32-2.71-4.34Z"/>
      <path class="cls-3" d="m396.57,153.81c-3.4,1.55-7.39.06-8.99-3.47l-1.22-2.69-5.63,2.56-1.86-4.09,17.91-8.14,3.08,6.78c1.6,3.53.11,7.51-3.29,9.06Zm-1.86-4.09c1.3-.59,1.88-1.97,1.31-3.22l-1.22-2.69-4.6,2.09,1.22,2.69c.57,1.25,1.99,1.72,3.29,1.13Z"/>
      <path class="cls-3" d="m395.02,175.96l-4.12,1.32-3.5-10.98,18.74-5.98,1.37,4.28-14.62,4.67,2.14,6.69Z"/>
      <path class="cls-3" d="m401.96,180.51c5.68-1.12,10.92,2.52,12.02,8.07,1.09,5.54-2.39,10.9-8.07,12.01-5.68,1.12-10.92-2.52-12.01-8.07-1.09-5.54,2.39-10.9,8.07-12.01Zm3.08,15.67c3.45-.68,5.25-3.61,4.63-6.75-.62-3.14-3.4-5.18-6.84-4.5-3.45.68-5.25,3.61-4.63,6.75.62,3.14,3.4,5.18,6.84,4.5Z"/>
      <path class="cls-3" d="m403.51,216.7l-.09-2.14-6.46.26-.18-4.49,19.66-.79.32,7.87c.15,3.74-2.74,6.86-6.47,7.01-2.42.1-4.67-1.28-5.85-3.4l-7.05,4.47-.19-4.83,6.31-3.97Zm3.85-2.29l.14,3.37c.05,1.24,1.19,2.2,2.62,2.15,1.43-.06,2.49-1.11,2.44-2.35l-.14-3.37-5.06.2Z"/>
      <path class="cls-3" d="m400.35,245.62l-4.31-.36,1.04-12.32,19.6,1.65-1.03,12.18-4.31-.36.65-7.7-3.25-.27-.59,7-4.26-.36.59-7-3.47-.29-.66,7.84Z"/>
      <path class="cls-3" d="m403.46,282.32l1.38-4.87-14.77-4.19,1.23-4.33,14.77,4.19,1.38-4.87,4.17,1.18-3.99,14.07-4.17-1.18Z"/>
      <path class="cls-3" d="m398.41,306.7l-18.09-7.73,1.77-4.13,7.19,3.07,2.43-5.69-7.18-3.07,1.77-4.13,18.09,7.73-1.77,4.13-6.93-2.96-2.43,5.69,6.93,2.96-1.77,4.14Z"/>
      <path class="cls-3" d="m373.75,319.55l-3.73-2.19,6.26-10.66,16.96,9.96-6.19,10.54-3.73-2.19,3.91-6.66-2.81-1.65-3.56,6.06-3.68-2.16,3.56-6.06-3-1.77-3.99,6.79Z"/>
      <path class="cls-3" d="m352.77,346.4l-3.26-2.86,8.9-10.14,2.62,2.3,3.95,13.49,4.88-5.56,3.25,2.86-8.72,9.93-2.62-2.3-3.95-13.49-5.06,5.77Z"/>
      <path class="cls-3" d="m351.77,355.47c3.8,4.37,3.26,10.72-1,14.43-4.26,3.71-10.63,3.37-14.43-1-3.8-4.37-3.26-10.72,1-14.43,4.26-3.71,10.63-3.37,14.43,1Zm-12.04,10.48c2.31,2.65,5.75,2.75,8.16.64,2.42-2.1,2.79-5.52.48-8.17-2.31-2.65-5.75-2.75-8.16-.64-2.42,2.11-2.79,5.53-.49,8.17Z"/>
      <path class="cls-3" d="m321.1,390.89l-10.58-16.59,2.84-1.81,12.14,4.93-5.74-9.01,3.79-2.42,10.58,16.59-2.84,1.81-12.14-4.93,5.74,9.01-3.79,2.42Z"/>
      <path class="cls-3" d="m293.48,387.55l-1.84-3.92,11.2-5.25,8.36,17.82-11.07,5.19-1.84-3.92,7-3.28-1.39-2.95-6.36,2.98-1.81-3.87,6.36-2.98-1.48-3.16-7.13,3.34Z"/>
      <path class="cls-3" d="m261.9,396.23l7.1-1.72.23-3.24,4.78-1.15-1.88,20.7-5.57,1.35-11.12-17.56,4.78-1.15,1.68,2.77Zm2.3,3.78l3.94,6.48.54-7.56-4.48,1.08Z"/>
      <path class="cls-3" d="m235.06,416.75l-1.93-19.58,3.36-.33,8.6,9.88-1.05-10.63,4.47-.44,1.93,19.58-3.36.33-8.6-9.88,1.05,10.63-4.47.44Z"/>
      <path class="cls-3" d="m206.67,406.52c.24-5.56,4.56-9.65,9.98-9.41l7.86.35-.86,19.66-7.86-.35c-5.42-.24-9.36-4.69-9.12-10.25Zm4.32.19c-.15,3.37,1.89,5.6,4.98,5.73l3.37.15.48-11.01-3.37-.15c-3.09-.14-5.32,1.9-5.47,5.27Z"/>
      <path class="cls-3" d="m178.79,407.13l.93-3.68-7.08-1.79,1.06-4.19,7.08,1.79,1.78-7,4.36,1.11-4.83,19.07-11.58-2.94,1.06-4.19,7.22,1.83Z"/>
      <path class="cls-3" d="m156.61,387.02l6.81,2.66,2.04-2.52,4.58,1.79-13.38,15.9-5.34-2.08.91-20.76,4.58,1.79-.21,3.24Zm-.28,4.42l-.48,7.57,4.77-5.89-4.29-1.67Z"/>
      <path class="cls-3" d="m142.54,388.24c-2.83,5.05-8.76,6.82-13.93,3.92-3.11-1.75-4.99-4.83-5.13-8.1l4.48-.06c.02,1.75,1.05,3.36,2.79,4.34,3.04,1.71,6.14.77,7.86-2.29s.9-6.2-2.14-7.9c-1.74-.98-3.68-1.03-5.15-.12l-2.28-3.86c2.83-1.6,6.44-1.61,9.58.15,5.17,2.9,6.75,8.88,3.92,13.93Z"/>
      <path class="cls-3" d="m112.45,362.34l2.59-3.47,9.91,7.39-11.76,15.76-9.8-7.31,2.59-3.47,6.19,4.62,1.95-2.61-5.63-4.2,2.55-3.42,5.63,4.2,2.08-2.79-6.31-4.71Z"/>
      <path class="cls-3" d="m87.96,343.19l5.62-5.06,3.01,3.34-5.62,5.06-4.58,13.01-3.42-3.8,3.14-7.86-8.14,2.3-3.42-3.8,13.42-3.2Z"/>
      <path class="cls-3" d="m78.01,335.06c-4.79,3.25-11.04,1.94-14.21-2.73-3.17-4.68-2.06-10.96,2.73-14.21,4.8-3.25,11.04-1.94,14.21,2.74,3.17,4.68,2.06,10.96-2.74,14.21Zm-8.95-13.22c-2.91,1.97-3.42,5.37-1.62,8.03,1.8,2.65,5.15,3.44,8.06,1.47,2.91-1.97,3.42-5.37,1.62-8.03-1.8-2.65-5.15-3.44-8.06-1.47Z"/>
      <path class="cls-3" d="m65.39,308.74l-12.01,5.77-1.95-4.05,11.65-5.6c1.34-.65,2.18-1.83,1.14-3.98-1.04-2.15-2.48-2.24-3.82-1.59l-11.65,5.6-1.95-4.05,12.01-5.77c3.8-1.83,7.49.02,9.37,3.92,1.88,3.9,1.01,7.94-2.79,9.76Z"/>
      <path class="cls-3" d="m53.2,280.06l.66,2.03,6.15-2,1.39,4.28-18.71,6.08-2.43-7.48c-1.16-3.56.77-7.35,4.33-8.5,2.3-.75,4.84-.04,6.55,1.68l5.57-6.22,1.5,4.6-5,5.53Zm-3.08,3.25l-1.04-3.21c-.38-1.18-1.74-1.8-3.1-1.36-1.36.44-2.09,1.75-1.71,2.92l1.04,3.21,4.81-1.56Z"/>
      <path class="cls-3" d="m40.91,234.07c5.53-.59,10.22,3.07,10.79,8.46l.83,7.83-19.56,2.08-.83-7.82c-.58-5.39,3.24-9.95,8.77-10.54Zm.46,4.3c-3.35.36-5.25,2.71-4.92,5.78l.36,3.35,10.95-1.17-.36-3.35c-.33-3.07-2.68-4.97-6.03-4.61Z"/>
      <path class="cls-3" d="m46.58,212.73l4.32.11-.31,12.36-19.67-.49.31-12.22,4.33.11-.19,7.73,3.26.08.18-7.02,4.27.11-.18,7.02,3.48.09.2-7.87Z"/>
      <path class="cls-3" d="m47.04,205.28l-1.65-4.17c1.72-.46,2.98-1.49,3.3-3.68.32-2.11-.44-2.77-1.19-2.88-1.19-.18-1.83.86-3.07,3.66-1.24,2.77-3.05,5.4-6.77,4.84-3.75-.56-5.45-4.05-4.95-7.41.48-3.2,2.38-5.47,5.45-6.46l1.64,4.08c-1.49.46-2.49,1.25-2.75,3.03-.21,1.39.39,2.19,1.16,2.3.89.13,1.57-.25,2.94-3.14,1.33-2.81,2.85-5.97,6.96-5.36,3.75.56,5.53,3.89,4.9,8.12-.61,4.09-2.94,6.41-5.97,7.07Z"/>
      <path class="cls-3" d="m43.89,167.39l-1.33,4.88,14.8,4.04-1.19,4.34-14.8-4.04-1.33,4.88-4.17-1.14,3.85-14.1,4.17,1.14Z"/>
      <path class="cls-3" d="m44.45,153.25l18.38,7.02-1.6,4.2-18.39-7.02,1.61-4.2Z"/>
      <path class="cls-3" d="m55.66,129.38l17.52,8.96-1.54,3-12.97,1.89,9.51,4.87-2.05,4-17.52-8.96,1.54-3,12.97-1.89-9.51-4.87,2.05-4Z"/>
      <path class="cls-3" d="m76.85,118.88l6.21,4.32-2.57,3.69-6.21-4.32-13.72-1.5,2.92-4.2,8.36,1.27-4.09-7.4,2.92-4.2,6.17,12.34Z"/>
      <path class="cls-3" d="m92.56,96.36c-1.62-1.64-1.56-4.3.12-5.96,1.64-1.62,4.26-1.6,5.88.04,1.66,1.68,1.68,4.34.04,5.96-1.68,1.66-4.38,1.64-6.04-.05Z"/>
    </g>
    <path class="cls-3" d="m223.86,18.49c27.73,0,54.62,5.43,79.94,16.14,24.46,10.34,46.42,25.15,65.28,44.02,18.86,18.86,33.67,40.83,44.02,65.28,10.71,25.32,16.14,52.21,16.14,79.94s-5.43,54.62-16.14,79.94c-10.34,24.46-25.15,46.42-44.02,65.28-18.86,18.86-40.83,33.67-65.28,44.02-25.32,10.71-52.21,16.14-79.94,16.14s-54.62-5.43-79.94-16.14c-24.46-10.34-46.42-25.15-65.28-44.02-18.86-18.86-33.67-40.83-44.02-65.28-10.71-25.32-16.14-52.21-16.14-79.94s5.43-54.62,16.14-79.94c10.34-24.46,25.15-46.42,44.02-65.28,18.86-18.86,40.83-33.67,65.28-44.02,25.32-10.71,52.21-16.14,79.94-16.14m0-5.76C107.26,12.73,12.73,107.26,12.73,223.86s94.53,211.13,211.13,211.13,211.13-94.53,211.13-211.13S340.47,12.73,223.86,12.73h0Z"/>
    <path class="cls-2" d="m146.66,256.33l-10.27-2.32,13.29,25.35-15.08,15.78,12.06,11.36,16.65,3.89-9.75-10.45,17.22-18.27-24.13-25.35Z"/>
    <path class="cls-2" d="m301.93,256.33l10.27-2.32-13.29,25.35,15.08,15.78-12.06,11.36-16.66,3.89,9.75-10.45-17.22-18.27,24.13-25.35Z"/>
    <path class="cls-2" d="m289.16,166.37l-28.46-26.32,12.5,34.32h58.01l-4.76-8h-37.29Z"/>
    <path class="cls-2" d="m159.51,166.37l28.46-26.32-12.5,34.32h-58.01l5.51-8h36.54Z"/>
    <path class="cls-1" d="m224.63,111.88h-11.64l-7.81,23.79h11.72l7.73-23.79Zm-22.07,31.76l-10.1,30.76h11.86l7.75-23.85-9.51-6.91Zm2,30.76h40.33l-20.17-14.65-20.17,14.65Zm40.57,0h10.42l-9.28-30.31-8.9,6.46,7.75,23.85Zm-1.43-38.73l-7.28-23.79h-11.6l7.73,23.79h11.15Z"/>
    <path class="cls-5" d="m285.44,186.88h-16.45v24.83l-35.64-27.57v57.58h16.45v-24.83l35.64,27.57v-57.58Zm50.5,41.13h-23.11v-7.83h21.54v-13.32h-21.54v-6.27h23.11v-13.71h-39.56v54.84h39.56v-13.71Zm-153.27-13.71c0,2.66.5,5.01,1.49,7.05.99,2.04,2.4,3.63,4.23,4.78,1.83,1.1,4.02,1.65,6.58,1.65s4.75-.55,6.58-1.65c1.83-1.15,3.24-2.74,4.23-4.78.99-2.04,1.49-4.39,1.49-7.05s-.47-5.07-1.41-7.05c-.94-2.04-2.32-3.6-4.15-4.7-1.78-1.15-4.02-1.72-6.74-1.72-2.56,0-4.75.57-6.58,1.72-1.83,1.1-3.24,2.66-4.23,4.7-.99,1.98-1.49,4.33-1.49,7.05Zm-18.25,0c0-4.39.78-8.36,2.35-11.91,1.57-3.55,3.73-6.61,6.5-9.17,2.77-2.56,6.01-4.52,9.71-5.88,3.71-1.36,7.7-2.04,11.99-2.04s8.43.68,12.14,2.04c3.71,1.36,6.95,3.32,9.71,5.88,2.77,2.56,4.91,5.61,6.42,9.17,1.51,3.55,2.27,7.52,2.27,11.91s-.76,8.41-2.27,12.06c-1.46,3.6-3.55,6.74-6.27,9.4-2.72,2.66-5.95,4.7-9.71,6.11-3.71,1.46-7.81,2.19-12.3,2.19s-8.62-.73-12.38-2.19c-3.71-1.41-6.92-3.45-9.64-6.11-2.72-2.66-4.83-5.8-6.35-9.4-1.46-3.66-2.19-7.68-2.19-12.06Zm-45.06-27.42v15.28h18.49l-23.58,39.56h47.39v-14.49h-20.6l24.13-40.34h-45.83Zm108.75,85.06v-16.06h48.57l-26.64,54.84h-18.72l20.21-38.78h-23.42Zm-30.81,5.56v10.1c2.14,0,3.92.18,5.33.55,1.46.31,2.61.78,3.45,1.41.84.58,1.44,1.25,1.8,2.04.37.73.55,1.49.55,2.27,0,1.3-.29,2.35-.86,3.13-.57.73-1.36,1.25-2.35,1.57-.94.26-2.01.39-3.21.39s-2.3-.24-3.45-.71c-1.1-.47-2.01-1.25-2.74-2.35-.68-1.1-1.02-2.56-1.02-4.39h-16.92c0,2.61.52,5.17,1.57,7.68,1.04,2.45,2.56,4.67,4.54,6.66,1.98,1.98,4.41,3.55,7.29,4.7,2.92,1.15,6.24,1.72,9.95,1.72,5.22,0,9.61-.73,13.16-2.19,3.6-1.46,6.32-3.45,8.15-5.95,1.88-2.56,2.82-5.46,2.82-8.69,0-2.82-.68-5.22-2.04-7.21-1.31-2.04-3.21-3.71-5.72-5.01-.93-.49-1.92-.93-2.99-1.32,2.19-.85,4.04-1.92,5.57-3.22,2.4-2.09,3.6-4.88,3.6-8.38,0-2.98-.84-5.64-2.51-7.99-1.67-2.35-4.13-4.2-7.36-5.56-3.24-1.36-7.21-2.04-11.91-2.04-4.44,0-8.3.84-11.59,2.51-3.24,1.67-5.74,3.92-7.52,6.74-1.78,2.82-2.66,5.98-2.66,9.48h15.75c0-1.62.55-2.92,1.65-3.92,1.1-.99,2.53-1.49,4.31-1.49,1.15,0,2.06.16,2.74.47.73.26,1.28.65,1.65,1.17.37.52.55,1.12.55,1.8,0,.78-.24,1.54-.71,2.27-.47.73-1.15,1.38-2.04,1.96-.84.58-1.85,1.02-3.05,1.33-1.15.31-2.4.47-3.76.47Z"/>
    <g>
      <path class="cls-4" d="m151.54,120.55l-6.63-11.47c-11.44,7.89-21.65,17.44-30.27,28.31l-27.75,7.6,7.3,27.85c-4.32,10.97-7.29,22.61-8.7,34.74l-28.28,16.33,28.28,16.33c1.57,13.47,5.07,26.34,10.2,38.36l-6.63,25.24,26.01,7.11c7.95,9.93,17.23,18.76,27.57,26.19l6.85-11.34c-31.38-22.95-51.76-60.03-51.76-101.88s21.27-80.53,53.8-103.35Z"/>
      <path class="cls-4" d="m277.27,338.24c-16.21,7.58-34.29,11.82-53.37,11.82s-38.9-4.66-55.71-12.94l-6.85,11.34c13.76,6.92,28.82,11.63,44.71,13.66l17.85,30.91,17.85-30.91c14.92-1.91,29.1-6.16,42.15-12.4l-6.63-11.48Z"/>
      <path class="cls-4" d="m353.21,275.92c4.58-11.36,7.69-23.46,9.13-36.07l27.62-15.95-27.62-15.95c-1.3-11.38-3.96-22.34-7.83-32.71l7.96-30.28-29.78-8.12c-7.96-9.94-17.25-18.77-27.61-26.21l-6.85,11.34c31.41,22.95,51.82,60.05,51.82,101.93s-21.3,80.58-53.86,103.39l6.63,11.47c11.07-7.62,20.97-16.8,29.41-27.21l28.3-7.74-7.31-27.89Z"/>
      <path class="cls-4" d="m223.9,55.21l-17.58,30.45c-15.04,1.89-29.34,6.17-42.49,12.47l6.63,11.48c16.23-7.6,34.34-11.86,53.44-11.86s38.85,4.65,55.63,12.91l6.85-11.34c-13.81-6.94-28.94-11.65-44.91-13.66l-17.58-30.44Z"/>
    </g>
  </g>
</svg>